<svg xmlns="http://www.w3.org/2000/svg" width="25.764" height="20.04" viewBox="0 0 25.764 20.04">
  <g id="Group_5196" data-name="Group 5196" transform="translate(-1008.885 -188.351)">
    <path id="Path_17481" data-name="Path 17481" d="M24.543,94.824V93.5a.787.787,0,0,0-.832-.84.818.818,0,0,0-.743.376.776.776,0,0,0-.7-.376.7.7,0,0,0-.619.314v-.261h-.46v2.114h.464V93.66a.5.5,0,0,1,.518-.562c.305,0,.46.2.46.557v1.177H23.1V93.66a.5.5,0,0,1,.518-.562c.314,0,.464.2.464.557v1.177Zm6.871-2.114h-.756v-.641h-.464v.641h-.42v.42H30.2V94.1c0,.491.19.783.734.783a1.079,1.079,0,0,0,.575-.164l-.133-.394a.849.849,0,0,1-.407.119c-.221,0-.305-.142-.305-.354v-.964h.752Zm3.923-.053a.624.624,0,0,0-.557.31v-.257h-.456v2.114h.46V93.638c0-.349.15-.544.442-.544a.75.75,0,0,1,.288.053l.142-.442a.984.984,0,0,0-.327-.058Zm-5.932.221a1.581,1.581,0,0,0-.863-.221c-.535,0-.885.257-.885.677,0,.345.257.557.73.624l.221.031c.252.035.372.1.372.221,0,.164-.168.257-.482.257a1.126,1.126,0,0,1-.7-.221l-.221.358a1.526,1.526,0,0,0,.916.274c.61,0,.964-.288.964-.69s-.279-.566-.739-.633l-.221-.031c-.2-.027-.358-.066-.358-.208s.15-.248.4-.248a1.362,1.362,0,0,1,.663.181Zm12.321-.221a.624.624,0,0,0-.557.31v-.257h-.456v2.114h.46V93.638c0-.349.15-.544.442-.544a.75.75,0,0,1,.288.053l.142-.442a.984.984,0,0,0-.327-.058ZM35.8,93.762a1.068,1.068,0,0,0,1.128,1.106,1.106,1.106,0,0,0,.761-.252l-.221-.372a.929.929,0,0,1-.553.19.679.679,0,0,1,0-1.354.929.929,0,0,1,.553.19l.221-.372a1.106,1.106,0,0,0-.761-.252A1.068,1.068,0,0,0,35.8,93.753Zm4.308,0V92.709h-.46v.257a.8.8,0,0,0-.663-.31,1.106,1.106,0,0,0,0,2.212.8.8,0,0,0,.663-.31v.257h.46Zm-1.712,0a.635.635,0,1,1,.173.479.639.639,0,0,1-.173-.479Zm-5.551-1.106a1.106,1.106,0,1,0,.031,2.212,1.285,1.285,0,0,0,.878-.288l-.221-.341a1.006,1.006,0,0,1-.615.221.586.586,0,0,1-.633-.518h1.57v-.177a1,1,0,0,0-1-1.106Zm0,.411a.524.524,0,0,1,.535.513H32.275a.544.544,0,0,1,.562-.513Zm11.525.7V91.86h-.442v1.106a.8.8,0,0,0-.663-.31,1.106,1.106,0,0,0,0,2.212.8.8,0,0,0,.663-.31v.257h.442Zm.767.75a.213.213,0,0,1,.2.126.206.206,0,0,1,0,.164.211.211,0,0,1-.115.111.208.208,0,0,1-.084.018.221.221,0,0,1-.2-.128.208.208,0,0,1,0-.164.215.215,0,0,1,.206-.126Zm0,.374a.157.157,0,0,0,.064-.013.166.166,0,0,0,.051-.035.159.159,0,0,0-.051-.257.159.159,0,0,0-.064-.013.166.166,0,0,0-.064.013.161.161,0,0,0-.053.035.16.16,0,0,0,.124.27Zm.013-.263a.088.088,0,0,1,.058.018.055.055,0,0,1,.02.046.053.053,0,0,1-.015.04.077.077,0,0,1-.046.02l.064.073h-.051l-.06-.073H45.1v.073h-.042v-.195Zm-.049.038v.053h.049a.046.046,0,0,0,.027,0,103.9,103.9,0,0,1,0-.04.047.047,0,0,0-.027,0Zm-2.433-.9a.635.635,0,1,1,.173.479A.639.639,0,0,1,42.669,93.766Zm-15.532,0V92.709h-.46v.257a.8.8,0,0,0-.663-.31,1.106,1.106,0,0,0,0,2.212.8.8,0,0,0,.663-.31v.257h.46Zm-1.712,0a.628.628,0,1,1,.17.48.639.639,0,0,1-.17-.48Z" transform="translate(989.03 113.456)" fill="#fff"/>
    <g id="_Group_" data-name="&lt;Group&gt;" transform="translate(1008.885 188.351)">
      <rect id="Rectangle_2315" data-name="Rectangle 2315" width="6.967" height="12.52" transform="translate(9.398 1.703)" fill="#ff5f00"/>
      <path id="_Path_" data-name="&lt;Path&gt;" d="M25,23.117a7.948,7.948,0,0,1,3.041-6.261,7.962,7.962,0,1,0,0,12.52A7.948,7.948,0,0,1,25,23.117Z" transform="translate(-15.155 -15.154)" fill="#eb001b"/>
      <path id="Path_17482" data-name="Path 17482" d="M86.283,23.114A7.962,7.962,0,0,1,73.4,29.373a7.962,7.962,0,0,0,0-12.52,7.962,7.962,0,0,1,12.883,6.259Z" transform="translate(-60.519 -15.151)" fill="#f79e1b"/>
      <path id="Path_17483" data-name="Path 17483" d="M127.649,72.37v-.257h.1V72.06h-.263v.053h.113v.257Zm.511,0v-.31h-.08l-.093.221-.093-.221h-.071v.31h.057v-.232l.086.2h.06l.086-.2v.234Z" transform="translate(-102.646 -59.474)" fill="#f79e1b"/>
    </g>
  </g>
</svg>
